<?xml version="1.0" encoding="UTF-8"?>
<svg xmlns="http://www.w3.org/2000/svg" width="718.258" height="391.426" xmlns:xlink="http://www.w3.org/1999/xlink" viewBox="0 0 718.258 391.426">
  <defs>
    <style>
      .cls-1 {
        fill: url(#linear-gradient-2);
      }

      .cls-1, .cls-2, .cls-3, .cls-4, .cls-5, .cls-6, .cls-7, .cls-8 {
        stroke-width: 0px;
      }

      .cls-1, .cls-3, .cls-9, .cls-5 {
        mix-blend-mode: screen;
      }

      .cls-1, .cls-3, .cls-5 {
        opacity: .6;
      }

      .cls-2 {
        fill: #52b22a;
      }

      .cls-2, .cls-4, .cls-6 {
        fill-rule: evenodd;
      }

      .cls-3 {
        fill: url(#linear-gradient-4);
      }

      .cls-10 {
        isolation: isolate;
      }

      .cls-9 {
        opacity: .57;
      }

      .cls-4 {
        fill: #ffdf00;
      }

      .cls-5 {
        fill: url(#linear-gradient-3);
      }

      .cls-6 {
        fill: url(#linear-gradient);
      }

      .cls-7 {
        fill: #21235f;
      }

      .cls-8 {
        fill: #0290ce;
      }
    </style>
    <linearGradient id="linear-gradient" x1="222.543" y1="216.894" x2="332.119" y2="368.268" gradientUnits="userSpaceOnUse">
      <stop offset="0" stop-color="#ff5e06"/>
      <stop offset=".731" stop-color="#a10000"/>
      <stop offset="1" stop-color="#ff5e06"/>
    </linearGradient>
    <linearGradient id="linear-gradient-2" x1="8.004" y1="135.194" x2="92.621" y2="135.194" gradientUnits="userSpaceOnUse">
      <stop offset="0" stop-color="#000"/>
      <stop offset="1" stop-color="#fff"/>
    </linearGradient>
    <linearGradient id="linear-gradient-3" x1="87.713" y1="235.866" x2="188.702" y2="235.866" xlink:href="#linear-gradient-2"/>
    <linearGradient id="linear-gradient-4" x1="168.525" y1="295.727" x2="385.788" y2="295.727" xlink:href="#linear-gradient-2"/>
  </defs>
  <g class="cls-10">
    <g id="Layer_0" data-name="Layer 0">
      <g>
        <g>
          <path class="cls-2" d="M61.897,32.262c-.414-13.617-16.804-14.843-20.176,11.733L1.891,210.936c-3.165,13.611-2.719,23.386,4.121,31.475,39.633,45.639,61.559,65.921,104.182,114.509,8.773,10.18,24.994,2.059,18.475-13.741C79.435,226.235,64.623,162.073,61.897,32.262Z"/>
          <path class="cls-4" d="M100.269,179.794c-6.11-9.536-18.333-3.415-9.394,16.991l42.824,136.096c3.55,11.064,8.033,17.849,16.37,20.699,47.758,15.649,72.05,20.763,123.197,37.245,10.603,3.516,18.711-9.207,7.314-17.692-85.026-62.422-122.975-101.877-180.311-193.339Z"/>
          <path class="cls-6" d="M176.888,254.982c-7.966-4.206-14.011,4.821.16,15.427l82.964,77.341c6.792,6.257,12.553,9.187,19.438,7.897,39.148-7.897,57.971-13.882,99.798-22.531,8.717-1.726,9.331-13.699-1.877-15.102-83.271-9.841-124.99-22.259-200.483-63.032Z"/>
        </g>
        <g class="cls-9">
          <path class="cls-1" d="M92.621,247.594c-21.079-66.573-28.828-125.096-30.724-215.332-.414-13.617-16.804-14.843-20.176,11.733L8.004,185.312c24.998,22.105,53.378,43.12,84.616,62.282Z"/>
          <path class="cls-5" d="M110.129,257.976c8.196,4.686,16.57,9.243,25.114,13.659,17.792,9.194,35.657,17.417,53.46,24.699-31.022-31.406-56.777-66.043-88.433-116.54-6.11-9.536-18.333-3.415-9.394,16.991l19.254,61.19Z"/>
          <path class="cls-3" d="M177.048,270.408l39.056,36.41c49.614,17.673,98.176,27.885,142.668,30.71,6.26-1.406,12.988-2.863,20.475-4.413,8.717-1.726,9.331-13.699-1.877-15.102-83.271-9.841-124.99-22.259-200.483-63.032-7.966-4.206-14.011,4.821.16,15.427Z"/>
        </g>
      </g>
      <g>
        <path class="cls-7" d="M211.73,1.877l27.018,85.181h.377L265.766,1.877h38.463l9.569,129.46h-29.832l-5.064-88.183h-.377l-27.769,88.183h-24.016l-27.955-88.183h-.563l-4.69,88.183h-29.834L173.455,1.877h38.275Z"/>
        <path class="cls-7" d="M392.96,133.588c-38.086,0-67.92-25.141-67.92-66.795S355.247,0,392.96,0c26.644,0,41.091,11.068,44.467,14.633l-9.38,25.144c-2.439-3.19-16.324-13.51-33.399-13.51-21.951,0-38.838,14.636-38.838,39.963s17.638,39.777,38.838,39.777c16.135,0,27.769-6.378,34.899-13.696l10.131,23.642c-6.567,6.753-20.263,17.635-46.718,17.635Z"/>
        <path class="cls-7" d="M488.701,1.877v129.46h-30.397V1.877h30.397Z"/>
        <path class="cls-7" d="M537.786,1.877v104.319h44.841v25.141h-75.05V1.877h30.208Z"/>
      </g>
      <g>
        <path class="cls-8" d="M279.902,218.801c6.71,0,12.079-3.848,12.079-10.379,0-6.173-5.403-8.145-10.021-10.111l-9.037-3.847c-6.662-2.837-11.004-8.016-11.004-15.479,0-10.988,9.993-16.463,19.862-16.463,10.111,0,16.015,6.174,17.715,7.964l-4.563,5.905c-3.042-3.221-7.515-6.621-13.599-6.621s-10.737,2.863-10.737,8.589c0,5.343,3.503,7.567,7.964,9.394l10.914,4.474c6.725,2.756,11.184,8.69,11.184,15.657,0,11.969-10.703,18.252-21.562,18.252s-17-6.978-19.953-10.378l5.101-5.816c3.131,4.205,8.946,8.858,15.657,8.858Z"/>
        <path class="cls-8" d="M329.464,181.76c12.615,0,22.456,9.037,22.456,22.189,0,13.241-9.841,22.1-22.456,22.1-12.705,0-22.548-8.859-22.548-22.1,0-13.152,9.842-22.189,22.548-22.189ZM343.243,203.681c0-8.321-5.279-14.942-13.779-14.942-8.589,0-13.869,6.621-13.869,14.942,0,8.409,5.279,15.03,13.869,15.03,8.499,0,13.779-6.621,13.779-15.03Z"/>
        <path class="cls-8" d="M379.471,226.049c-11.452,0-21.473-8.589-21.473-22.189,0-13.689,10.469-22.1,21.741-22.1,11.364,0,16.016,5.548,16.463,6.084l-3.042,6.263c-1.432-1.432-5.189-5.189-12.705-5.189s-13.779,5.726-13.779,14.674,5.548,15.12,13.779,15.12c8.321,0,12.974-5.368,12.974-5.368l3.042,6.263s-4.831,6.443-17,6.443Z"/>
        <path class="cls-8" d="M408.007,163.33c3.221,0,5.548,2.237,5.548,5.278s-2.326,5.279-5.548,5.279c-3.31,0-5.636-2.237-5.636-5.279s2.326-5.278,5.636-5.278Z"/>
        <rect class="cls-8" x="403.713" y="182.565" width="8.589" height="42.499"/>
        <path class="cls-8" d="M442.898,226.049c-12.615,0-21.295-8.769-21.295-22.279,0-13.42,9.752-22.01,21.563-22.01s20.131,8.411,20.131,20.31c0,1.611-.268,3.758-.268,3.758h-32.747c.447,8.411,5.816,13.51,13.689,13.51,7.963,0,13.064-4.295,14.047-4.921l3.579,4.921c-.537.447-5.994,6.711-18.7,6.711ZM442.898,187.934c-8.499,0-12.257,7.068-12.526,12.167h24.783c-.089-4.741-3.668-12.167-12.257-12.167Z"/>
        <path class="cls-8" d="M484.675,226.049c-4.473,0-7.246-1.7-9.036-4.384-1.79-2.685-2.148-5.994-2.148-12.705v-19.415h-6.263v-6.889h6.263v-12.704h8.589v12.704h10.2v6.889h-10.2v19.236c0,3.578.061,6.011,1.075,7.784.776,1.359,1.968,2.147,4.383,2.147,2.506,0,4.384-.983,4.384-.983l.537,6.889c-2.207.954-4.801,1.432-7.784,1.432Z"/>
        <path class="cls-8" d="M503.192,234.817c1.79,0,3.668.178,5.546-5.011l2.058-5.636-17.267-41.693,8.946.089,12.884,33.015,12.527-33.104,8.858.089-20.49,49.925c-2.952,7.336-6.441,9.842-11.184,9.842s-8.053-1.521-8.053-1.521l1.701-6.979s2.325.985,4.473.985Z"/>
        <path class="cls-8" d="M557.672,194.286c0-19.772,14.495-31.851,31.852-31.851s31.852,12.079,31.852,31.851-14.494,31.852-31.852,31.852-31.852-12.079-31.852-31.852ZM612.518,194.107c0-15.12-10.379-24.156-22.994-24.156s-22.994,9.036-22.994,24.156c0,15.032,10.469,24.158,22.994,24.158,12.615,0,22.994-9.126,22.994-24.158Z"/>
        <path class="cls-8" d="M639.619,182.565l-.069,7.191c2.335-5.02,7.787-7.996,13.221-7.996,12.079,0,15.21,7.963,15.21,18.163v25.141h-8.589v-23.71c0-7.158-1.252-12.526-8.858-12.526-7.963,0-10.916,6.71-10.916,14.852v21.383h-8.589v-42.499h8.589Z"/>
        <path class="cls-8" d="M697.858,226.049c-12.615,0-21.295-8.769-21.295-22.279,0-13.42,9.752-22.01,21.563-22.01s20.131,8.411,20.131,20.31c0,1.611-.268,3.758-.268,3.758h-32.747c.447,8.411,5.816,13.51,13.689,13.51,7.963,0,13.064-4.295,14.047-4.921l3.579,4.921c-.537.447-5.994,6.711-18.7,6.711ZM697.858,187.934c-8.499,0-12.257,7.068-12.526,12.167h24.783c-.089-4.741-3.668-12.167-12.257-12.167Z"/>
      </g>
    </g>
  </g>
</svg>