<svg xmlns="http://www.w3.org/2000/svg" version="1.1" xmlns:xlink="http://www.w3.org/1999/xlink" width="100%" height="100%" viewBox="0.08000000566244125 10.391096115112305 35.98332977294922 21.79890251159668"><path d="M6.64 10.47L6.64 10.47Q7.66 10.23 8.30 10.72Q8.95 11.21 8.05 12.44Q7.15 13.67 5.53 17.63Q3.91 21.58 3.42 23.24Q2.93 24.90 3.34 24.45Q3.75 24.00 4.15 23.64Q4.55 23.28 5.04 22.90Q5.53 22.52 5.93 22.34Q6.33 22.17 6.82 22.08Q7.30 21.99 7.71 22.22Q8.11 22.44 8.33 22.79Q8.55 23.14 8.60 24.06Q8.65 24.98 8.50 25.99Q8.34 26.99 8.48 27.50Q8.61 28.01 8.97 28.40Q9.34 28.79 10.21 28.58Q11.09 28.38 11.58 27.86Q12.07 27.34 11.81 27.93Q11.54 28.52 11.03 28.97Q10.51 29.43 9.77 29.78Q9.02 30.12 8.55 30.13Q8.09 30.14 7.60 29.74Q7.11 29.34 6.93 28.58Q6.76 27.83 6.86 26.25Q6.95 24.67 6.63 24.37Q6.31 24.06 4.97 25.06Q3.63 26.05 2.95 27.30Q2.27 28.55 1.93 29.42Q1.60 30.29 1.11 30.16Q0.63 30.02 0.35 29.71Q0.08 29.39 0.08 28.82Q0.08 28.24 1.25 24.36Q2.42 20.47 3.93 16.76Q5.43 13.05 5.68 12.25Q5.94 11.45 6.64 10.47ZM14.00 22.01L14.00 22.01Q14.75 21.00 15.21 21.04Q15.68 21.07 15.82 21.43Q15.96 21.78 16.05 22.08Q16.15 22.38 16.25 22.96Q16.35 23.54 15.46 25.20Q14.57 26.86 15.59 25.62Q16.60 24.38 17.32 24.07Q18.05 23.77 18.65 24.07Q19.26 24.38 19.41 24.80Q19.57 25.23 19.61 25.78Q19.65 26.33 19.77 26.41Q19.88 26.48 21.05 25.23Q22.23 23.98 23.12 23.58Q24.00 23.18 24.59 23.42Q25.18 23.65 25.62 24.34Q26.05 25.02 26.76 26.33Q27.46 27.64 28.21 28.25Q28.96 28.87 29.55 28.98Q30.14 29.10 31.58 28.35Q33.03 27.60 32.23 28.07Q31.43 28.54 30.62 28.88Q29.80 29.22 29.47 29.40Q29.14 29.59 28.56 29.73Q27.99 29.86 27.48 29.61Q26.97 29.36 26.50 28.96Q26.04 28.55 25.33 27.63Q24.63 26.70 24.33 26.25Q24.02 25.80 23.57 25.88Q23.13 25.96 22.64 26.38Q22.15 26.80 21.30 27.58Q20.45 28.36 19.97 29.22Q19.49 30.08 19.39 30.32Q19.30 30.57 18.89 31.01Q18.48 31.45 18.11 31.34Q17.73 31.23 17.57 30.95Q17.40 30.66 17.54 29.94Q17.68 29.22 17.76 28.55Q17.85 27.89 17.90 27.11Q17.95 26.33 17.44 26.28Q16.93 26.23 15.75 27.39Q14.57 28.55 14.26 29.20Q13.95 29.84 13.76 30.12Q13.57 30.39 13.37 30.55Q13.16 30.70 12.55 30.51Q11.93 30.31 11.86 30Q11.78 29.69 12.15 28.73Q12.52 27.77 13.13 25.78Q13.73 23.79 13.96 23.26Q14.20 22.73 10.71 25.18Q7.23 27.62 8.76 26.37Q10.29 25.12 11.78 24.07Q13.26 23.03 14.00 22.01ZM33.50 21.80L33.50 21.80Q34.28 21.41 35.06 21.29Q35.84 21.17 36.01 21.58Q36.17 21.99 35.85 22.38Q35.53 22.77 34.97 22.82Q34.41 22.87 33.77 23.62Q33.13 24.38 33.03 25.40Q32.93 26.43 33.08 26.82Q33.22 27.21 33.40 28.34Q33.57 29.47 33.16 30.28Q32.75 31.09 32.29 31.46Q31.82 31.84 31.12 32.01Q30.43 32.19 29.94 32.19Q29.45 32.19 28.90 31.95Q28.34 31.72 28.21 30.99Q28.09 30.25 30.26 28.27Q32.44 26.29 30.61 28.15Q28.77 30.02 29.17 30.47Q29.57 30.92 30.13 30.70Q30.68 30.49 31.01 30.13Q31.33 29.77 31.48 29.25Q31.64 28.73 31.62 28.29Q31.60 27.85 31.32 26.34Q31.04 24.82 31.32 24.06Q31.60 23.30 32.16 22.74Q32.71 22.19 33.50 21.80Z" fill="#333335"></path></svg>